<?xml version="1.0" encoding="UTF-8" standalone="no"?>
<!DOCTYPE svg PUBLIC "-//W3C//DTD SVG 1.1//EN" "http://www.w3.org/Graphics/SVG/1.1/DTD/svg11.dtd">
<svg width="100%" height="100%" viewBox="0 0 907 822" version="1.1" xmlns="http://www.w3.org/2000/svg" xmlns:xlink="http://www.w3.org/1999/xlink" xml:space="preserve" xmlns:serif="http://www.serif.com/" style="fill-rule:evenodd;clip-rule:evenodd;stroke-linecap:round;stroke-linejoin:round;stroke-miterlimit:1.5;">
    <g transform="matrix(1,0,0,1,-75.2805,-149.094)">
        <g>
            <g transform="matrix(0.230216,0.119843,-0.131152,0.246928,841.007,199.575)">
                <path d="M877.234,889.907L877.234,899.415C806.35,971.809 707.545,1016.76 598.324,1016.76C490.462,1016.76 392.759,972.921 322.074,902.106L322.074,892.582C309.633,885.332 301.365,872.548 301.365,858L301.365,811.681C301.365,789.111 321.264,770.787 345.774,770.787L362.64,770.787C360.997,765.445 360.102,759.916 360.035,754.254L355.897,406.035C355.357,360.622 408.265,323.752 473.973,323.752L712.081,323.752C774.703,323.752 826.495,357.24 831.689,399.695L835.978,760.593C835.637,764.055 834.984,767.457 834.039,770.787L849.467,770.787C873.977,770.787 893.876,789.111 893.876,811.681L893.876,858C893.876,870.898 887.378,882.409 877.234,889.907Z" style="fill:rgb(0,106,181);"/>
            </g>
            <g transform="matrix(1.54263,0,0,1.54263,-294.914,-278.119)">
                <g transform="matrix(1.11056,0,0,1.15593,-0.223517,-161.833)">
                    <g id="path3925-8" transform="matrix(2.35666,0,0,2.35666,-224.819,-3647.89)">
                        <g>
                            <clipPath id="_clip1">
                                <rect x="168.838" y="1703.29" width="150.672" height="216.715"/>
                            </clipPath>
                            <g clip-path="url(#_clip1)">
                                <path d="M243.452,1708.98C265.504,1708.79 285.985,1721.68 296.038,1741C300.696,1732.06 307.744,1724.48 315.97,1718.69C338.58,1702.77 372.09,1707.23 390.34,1727.94C409.981,1750.24 408.053,1785.54 390.878,1808.35C373.082,1831.98 348.995,1849.48 327.262,1869.35C321.273,1874.83 315.464,1880.49 310.013,1886.51C305.064,1891.97 300.177,1899.35 295.786,1904.03C289.651,1894.99 282.639,1886.77 275.124,1879.02C255.421,1858.69 232.257,1841.62 212.339,1821.49C195.7,1804.67 185.257,1781.12 188.371,1757.27C191.872,1730.45 216.518,1709.21 243.452,1708.98ZM243.548,1719.26C221.701,1719.44 201.826,1736.8 198.986,1758.55C196.274,1779.32 205.6,1799.76 220.093,1814.4C240.035,1834.56 263.225,1851.66 282.952,1872.01C287.557,1876.76 291.979,1881.68 296.146,1886.84C298.05,1884.37 299.991,1881.91 301.943,1879.76C307.614,1873.5 313.655,1867.61 319.885,1861.91C341.145,1842.47 364.802,1825.44 382.21,1802.33C396.68,1783.11 398.721,1753.37 382.174,1734.59C367.475,1717.9 340.505,1714.16 322.294,1726.98C315.419,1731.82 309.498,1738.13 305.605,1745.6C303.792,1749.09 300.087,1751.28 296.035,1751.28C291.984,1751.28 288.28,1749.08 286.469,1745.6C278.245,1729.8 261.587,1719.1 243.548,1719.26Z" style="fill:rgb(0,106,181);fill-opacity:0.98;"/>
                            </g>
                        </g>
                    </g>
                    <g id="path3925-81" serif:id="path3925-8" transform="matrix(2.35666,0,0,2.35666,-226.347,-3646.71)">
                        <g>
                            <clipPath id="_clip2">
                                <rect x="303.792" y="1703.97" width="132.876" height="85.728"/>
                            </clipPath>
                            <g clip-path="url(#_clip2)">
                                <path d="M243.452,1708.98C265.504,1708.79 285.985,1721.68 296.038,1741C300.696,1732.06 307.744,1724.48 315.97,1718.69C338.58,1702.77 372.09,1707.23 390.34,1727.94C400.533,1739.51 404.917,1754.59 404.375,1769.6C403.873,1783.52 399.14,1797.38 390.878,1808.35C389.926,1809.62 388.956,1810.86 387.969,1812.09C370.511,1833.86 347.832,1850.54 327.262,1869.35C321.273,1874.83 315.464,1880.49 310.013,1886.51C305.064,1891.97 300.177,1899.35 295.786,1904.03C289.651,1894.99 282.639,1886.77 275.124,1879.02C255.421,1858.69 232.257,1841.62 212.339,1821.49C195.7,1804.67 185.257,1781.12 188.371,1757.27C191.872,1730.45 216.518,1709.21 243.452,1708.98ZM243.548,1719.26C221.701,1719.44 201.826,1736.8 198.986,1758.55C196.274,1779.32 205.6,1799.76 220.093,1814.4C240.035,1834.56 263.225,1851.66 282.952,1872.01C287.557,1876.76 291.979,1881.68 296.146,1886.84C298.05,1884.37 299.991,1881.91 301.943,1879.76C307.614,1873.5 313.655,1867.61 319.885,1861.91C340.06,1843.46 362.373,1827.17 379.494,1805.82C380.416,1804.67 381.321,1803.51 382.21,1802.33C389.26,1792.96 393.255,1781.12 393.683,1769.25C394.134,1756.77 390.644,1744.2 382.174,1734.59C367.475,1717.9 340.505,1714.16 322.294,1726.98C315.419,1731.82 309.498,1738.13 305.605,1745.6C303.792,1749.09 300.087,1751.28 296.035,1751.28C291.984,1751.28 288.28,1749.08 286.469,1745.6C278.245,1729.8 261.587,1719.1 243.548,1719.26Z" style="fill:rgb(0,106,181);fill-opacity:0.98;"/>
                            </g>
                        </g>
                    </g>
                </g>
                <g transform="matrix(0.886855,0.462048,-0.462048,0.886855,561.547,-91.4014)">
                    <g transform="matrix(0.176363,-3.82509e-17,-0.00189359,0.22874,334.733,263.077)">
                        <path d="M828.986,941.274C764.344,988.723 684.582,1016.76 598.324,1016.76C509.727,1016.76 427.983,987.182 362.437,937.372" style="fill:none;stroke:rgb(0,106,181);stroke-width:63.73px;"/>
                    </g>
                    <g transform="matrix(0.442329,5.55112e-17,-0.00363284,0.438837,177.486,222.105)">
                        <path d="M898.7,875.625C844.194,941.22 768.629,988.705 682.421,1007.66C655.332,1013.62 627.192,1016.76 598.324,1016.76C581.482,1016.76 564.887,1015.69 548.605,1013.62C445.793,1000.52 355.415,947.378 293.629,870.335" style="fill:none;stroke:rgb(0,106,181);stroke-width:29.55px;"/>
                    </g>
                    <g transform="matrix(0.379775,2.77556e-17,-0.00311909,0.376777,215.054,239.455)">
                        <path d="M880.108,896.448C809.034,970.579 709.029,1016.76 598.324,1016.76C483.498,1016.76 380.184,967.077 308.724,888.055" style="fill:none;stroke:rgb(0,106,181);stroke-width:34.42px;"/>
                    </g>
                    <g transform="matrix(0.323373,0,-0.00265586,0.32082,247.117,251.112)">
                        <path d="M866.417,910.044C796.465,976.183 702.095,1016.76 598.324,1016.76C494.039,1016.76 399.249,975.78 329.194,909.06" style="fill:none;stroke:rgb(0,106,181);stroke-width:40.42px;"/>
                    </g>
                    <g transform="matrix(0.230001,0,-0.001889,0.228185,302.238,304.145)">
                        <path d="M866.417,910.044C796.465,976.183 702.095,1016.76 598.324,1016.76C494.039,1016.76 399.249,975.78 329.194,909.06" style="fill:none;stroke:rgb(0,106,181);stroke-width:56.83px;"/>
                    </g>
                </g>
            </g>
        </g>
    </g>
</svg>
