<?xml version="1.0" encoding="UTF-8" standalone="no"?>
<!DOCTYPE svg PUBLIC "-//W3C//DTD SVG 1.1//EN" "http://www.w3.org/Graphics/SVG/1.1/DTD/svg11.dtd">
<svg width="100%" height="100%" viewBox="0 0 183 172" version="1.1" xmlns="http://www.w3.org/2000/svg" xmlns:xlink="http://www.w3.org/1999/xlink" xml:space="preserve" xmlns:serif="http://www.serif.com/" style="fill-rule:evenodd;clip-rule:evenodd;stroke-linejoin:round;stroke-miterlimit:2;">
    <g transform="matrix(0.0893555,0,0,0.0893555,136.267,6.83105)">
        <path d="M-18,3L11,3L52,7L81,12L117,21L152,33L181,46L206,59L226,71L241,81L260,95L276,108L286,117L301,131L319,149L326,157L339,173L349,186L361,203L375,225L385,243L399,271L413,305L425,341L434,377L439,402L444,440L447,472L448,500L448,528L446,557L441,603L437,629L428,674L417,717L402,764L387,806L372,842L350,888L342,904L325,937L315,955L283,1009L273,1024L263,1040L248,1062L235,1080L215,1108L205,1121L194,1135L182,1151L180,1157L186,1168L190,1181L194,1204L194,1219L192,1228L190,1242L183,1261L175,1275L166,1287L154,1299L133,1313L89,1341L68,1354L48,1367L24,1382L5,1394L-2,1399L1,1404L9,1414L15,1424L17,1430L16,1446L10,1461L3,1475L-7,1488L-21,1502L-31,1509L-36,1511L-47,1512L-80,1505L-96,1499L-111,1491L-129,1479L-139,1471L-151,1460L-154,1458L-154,1456L-156,1456L-163,1448L-172,1438L-183,1423L-193,1408L-205,1386L-214,1367L-224,1339L-227,1329L-226,1323L-218,1309L-204,1294L-197,1287L-182,1277L-171,1272L-155,1268L-137,1268L-126,1272L-115,1280L-112,1284L-112,1286L-108,1288L-102,1293L-100,1288L-91,1272L-81,1254L-61,1219L-48,1196L-36,1175L-24,1153L-13,1133L-3,1120L7,1110L25,1099L40,1092L52,1089L59,1088L88,1088L95,1089L101,1086L111,1075L125,1056L133,1046L145,1029L155,1015L168,996L178,981L192,959L207,935L217,918L227,900L235,886L247,863L257,844L275,806L287,777L302,737L314,700L324,663L331,632L337,597L341,567L342,556L343,523L343,471L340,439L335,408L325,368L315,338L305,314L294,291L282,270L272,255L260,239L252,229L240,215L216,191L205,182L192,172L174,160L157,150L134,138L111,128L81,118L52,111L32,108L8,106L-27,106L-58,109L-89,115L-113,122L-133,129L-159,140L-182,152L-201,164L-222,178L-242,194L-256,206L-264,213L-280,228L-289,238L-291,238L-293,242L-302,252L-311,263L-322,277L-336,296L-346,311L-360,333L-373,355L-388,383L-403,416L-418,452L-433,491L-449,533L-460,564L-467,582L-470,584L-474,579L-483,558L-494,528L-503,504L-516,470L-532,430L-545,401L-559,372L-571,350L-587,323L-602,299L-616,280L-627,267L-635,257L-647,243L-658,231L-676,213L-684,206L-698,194L-718,179L-734,168L-755,155L-778,143L-802,132L-829,122L-855,115L-873,111L-909,106L-925.929,104.903L-942,105L-959,106L-995,111L-1025,118L-1054,128L-1079,139L-1103,152L-1126,167L-1141,178L-1151,187L-1159,194L-1165,199L-1170,204L-1186,221L-1195,232L-1209,250L-1221,268L-1237,295L-1249,320L-1260,348L-1267,369L-1274,397L-1279,422L-1282,444L-1286,489L-1286,528L-1281,582L-1275,622L-1266,663L-1254,705L-1242,741L-1230,772L-1218,801L-1205,829L-1196,848L-1186,867L-1172,894L-1144,942L-1129,966L-1119,981L-1102,1006L-1092,1020L-1079,1038L-1061,1062L-1045,1083L-1035,1096L-1021,1113L-1008,1129L-999,1140L-988,1152L-979,1163L-972,1170L-963,1181L-947,1198L-935,1211L-926,1221L-919,1228L-912,1236L-897,1252L-847,1302L-839,1309L-831,1317L-823,1324L-809,1337L-801,1344L-772,1371L-764,1378L-750,1390L-739,1400L-728,1409L-717,1419L-706,1428L-693,1439L-679,1451L-669,1459L-658,1468L-630,1490L-614,1503L-600,1514L-574,1534L-558,1546L-537,1562L-523,1572L-439,1640L-429,1648L-414,1661L-396,1679L-397,1683L-408,1691L-427,1705L-441,1715L-456,1725L-466,1733L-469,1734L-478,1731L-489,1723L-502,1714L-521,1701L-540,1687L-558,1674L-577,1660L-645,1609L-666,1593L-680,1582L-690,1574L-701,1565L-717,1552L-731,1541L-744,1530L-758,1519L-773,1506L-786,1495L-800,1483L-811,1473L-819,1466L-829,1457L-840,1448L-854,1435L-862,1428L-892,1400L-899,1393L-907,1386L-923,1371L-941,1353L-943,1352L-943,1350L-946,1349L-946,1347L-950,1345L-965,1330L-972,1322L-987,1307L-994,1299L-1009,1283L-1018,1274L-1025,1266L-1032,1259L-1039,1251L-1049,1240L-1058,1229L-1068,1218L-1077,1207L-1090,1192L-1101,1178L-1114,1162L-1123,1151L-1134,1137L-1144,1124L-1158,1105L-1171,1087L-1185,1067L-1211,1028L-1222,1011L-1234,992L-1253,960L-1266,937L-1278,914L-1288,895L-1302,866L-1316,835L-1327,808L-1337,782L-1346,757L-1358,718L-1368,681L-1377,636L-1383,600L-1386,570L-1387,547L-1388,537L-1389,504L-1389,489L-1386,447L-1384,424L-1376,380L-1371,358L-1364,333L-1352,298L-1342,275L-1331,252L-1318,229L-1305,208L-1297,196L-1285,180L-1271,162L-1259,148L-1243,131L-1235,123L-1227,116L-1213,104L-1201,95L-1182,81L-1165,70L-1150,61L-1132,51L-1110,40L-1091,32L-1070,24L-1061,20L-1013,10L-984,6L-960,4L-907,4L-873,7L-844,12L-810,20L-774,32L-750,42L-725,54L-706,64L-680,80L-663,92L-644,106L-628,119L-614,131L-599,145L-580,164L-573,172L-565,180L-558,188L-545,204L-535,217L-523,233L-502,264L-492,280L-478,305L-473,313L-469,315L-461,301L-452,285L-441,268L-433,256L-420,237L-412,226L-398,207L-387,193L-378,183L-371,175L-358,162L-354,157L-349,153L-342,145L-331,133L-309,115L-299,107L-280,93L-262,81L-243,69L-222,57L-206,49L-183,38L-162,30L-138,22L-102,13L-75,8L-50,5L-18,3Z" style="fill:rgb(0,94,184);fill-rule:nonzero;"/>
    </g>
    <g transform="matrix(0.0893555,0,0,0.0893555,109.371,136.039)">
        <path d="M0,0L5,0L8,4L19,34L28,51L34,62L44,77L57,92L66,101L80,112L93,121L109,130L121,135L139,140L147,141L168,141L171,143L172,148L172,160L168,170L161,173L143,172L125,169L98,160L82,152L68,143L57,134L44,122L31,109L22,98L13,85L3,68L-9,42L-20,15L-20,10L-3,1L0,0Z" style="fill:rgb(0,94,184);fill-rule:nonzero;"/>
    </g>
    <g transform="matrix(0.0893555,0,0,0.0893555,104.903,140.149)">
        <path d="M0,0L7,0L10,4L17,23L28,47L38,65L49,80L62,95L74,106L90,118L104,126L120,133L132,137L141,139L164,140L170,142L172,147L173,154L173,167L167,171L151,171L126,167L105,161L84,151L68,141L54,130L33,109L20,92L9,75L-3,53L-14,26L-19,14L-18,9L-3,1L0,0Z" style="fill:rgb(0,94,184);fill-rule:nonzero;"/>
    </g>
    <g transform="matrix(0.0893555,0,0,0.0893555,113.303,131.482)">
        <path d="M0,0L5,1L8,6L17,32L25,48L33,62L44,78L58,94L67,103L84,116L97,125L113,133L129,138L137,140L160,142L169,144L171,146L172,153L170,168L167,172L157,173L119,167L101,161L83,153L64,141L51,130L35,115L28,107L15,89L5,73L-7,50L-17,27L-22,16L-20,10L-14,6L0,0Z" style="fill:rgb(0,94,184);fill-rule:nonzero;"/>
    </g>
    <g transform="matrix(0.0893555,0,0,0.0893555,99.8101,144.796)">
        <path d="M0,0L8,0L11,5L18,25L27,45L38,65L51,83L65,98L79,110L94,120L113,130L129,136L145,140L166,141L172,143L173,146L173,160L171,168L167,171L158,171L126,166L110,162L90,153L74,144L57,131L45,120L35,110L26,99L16,86L5,67L-3,51L-14,25L-18,15L-18,9L-13,5L0,0Z" style="fill:rgb(0,94,184);fill-rule:nonzero;"/>
    </g>
</svg>
